<svg version="1.1" viewBox="0.0 0.0 720.0 960.0" fill="none" stroke="none" stroke-linecap="square" stroke-miterlimit="10" xmlns:xlink="http://www.w3.org/1999/xlink" xmlns="http://www.w3.org/2000/svg"><clipPath id="p.0"><path d="m0 0l720.0 0l0 960.0l-720.0 0l0 -960.0z" clip-rule="nonzero"/></clipPath><g clip-path="url(#p.0)"><path fill="#000000" fill-opacity="0.0" d="m0 0l720.0 0l0 960.0l-720.0 0z" fill-rule="evenodd"/><path fill="#000000" fill-opacity="0.0" d="m730.33594 8.220472l0 45.38105l-370.3307 198.83943l-370.33072 -198.83943l0 -45.38105l370.33072 198.83942z" fill-rule="evenodd"/><path stroke="#ffffff" stroke-width="8.0" stroke-linejoin="round" stroke-linecap="butt" d="m730.33594 8.220472l0 45.38105l-370.3307 198.83943l-370.33072 -198.83943l0 -45.38105l370.33072 198.83942z" fill-rule="evenodd"/><path fill="#000000" fill-opacity="0.0" d="m730.3307 136.00262l0 45.381042l-370.3307 198.83942l-370.33072 -198.83942l0 -45.381042l370.33072 198.83942z" fill-rule="evenodd"/><path stroke="#ffffff" stroke-width="8.0" stroke-linejoin="round" stroke-linecap="butt" d="m730.3307 136.00262l0 45.381042l-370.3307 198.83942l-370.33072 -198.83942l0 -45.381042l370.33072 198.83942z" fill-rule="evenodd"/><path fill="#000000" fill-opacity="0.0" d="m730.3307 288.6614l0 45.381073l-370.3307 198.83942l-370.33072 -198.83942l0 -45.381073l370.33072 198.83945z" fill-rule="evenodd"/><path stroke="#ffffff" stroke-width="8.0" stroke-linejoin="round" stroke-linecap="butt" d="m730.3307 288.6614l0 45.381073l-370.3307 198.83942l-370.33072 -198.83942l0 -45.381073l370.33072 198.83945z" fill-rule="evenodd"/><path fill="#000000" fill-opacity="0.0" d="m730.33594 460.49344l0 45.381042l-370.3307 198.83945l-370.33072 -198.83945l0 -45.381042l370.33072 198.83945z" fill-rule="evenodd"/><path stroke="#ffffff" stroke-width="8.0" stroke-linejoin="round" stroke-linecap="butt" d="m730.33594 460.49344l0 45.381042l-370.3307 198.83945l-370.33072 -198.83945l0 -45.381042l370.33072 198.83945z" fill-rule="evenodd"/><path fill="#000000" fill-opacity="0.0" d="m730.3307 619.8373l0 45.381042l-370.3307 198.83942l-370.33072 -198.83942l0 -45.381042l370.33072 198.83942z" fill-rule="evenodd"/><path stroke="#ffffff" stroke-width="8.0" stroke-linejoin="round" stroke-linecap="butt" d="m730.3307 619.8373l0 45.381042l-370.3307 198.83942l-370.33072 -198.83942l0 -45.381042l370.33072 198.83942z" fill-rule="evenodd"/></g></svg>