<svg id="Capa_1" enable-background="new 0 0 512.001 512.001" height="512" viewBox="0 0 512.001 512.001" width="512" xmlns="http://www.w3.org/2000/svg"><g><g><path d="m375.873 316.659c-3.921-1.355-8.186.725-9.539 4.638l-26.677 77.16-27.37-77.215c-1.385-3.904-5.67-5.947-9.575-4.563-3.904 1.384-5.947 5.67-4.563 9.575l33.65 94.933-12.595 36.429c-1.354 3.915.723 8.186 4.638 9.539.812.281 1.638.414 2.45.414 3.109 0 6.016-1.948 7.088-5.051l47.13-136.318c1.353-3.917-.723-8.188-4.637-9.541z"/><path d="m299.407 222.93c1.353 1.02 2.938 1.512 4.51 1.512 2.273 0 4.521-1.03 5.994-2.985l30.208-40.062 31.645 41.698c1.476 1.944 3.715 2.966 5.98 2.966 1.58 0 3.173-.498 4.528-1.526 3.3-2.504 3.944-7.208 1.44-10.508l-34.209-45.076 29.09-38.579c2.494-3.308 1.834-8.01-1.473-10.504-3.309-2.494-8.012-1.834-10.504 1.473l-26.537 35.194-26.723-35.212c-2.505-3.299-7.209-3.945-10.509-1.44-3.3 2.504-3.944 7.208-1.44 10.508l29.287 38.591-32.76 43.448c-2.494 3.306-1.833 8.008 1.473 10.502z"/><path d="m225.454 408.687c-16.436-75.003-17.053-151.173-1.834-226.394l12.811-63.315c.446-2.205-.121-4.494-1.546-6.236-1.424-1.741-3.555-2.751-5.805-2.751h-28.55c-3.569 0-6.644 2.515-7.351 6.013l-11.688 57.766c-16.411 81.111-15.746 163.244 1.977 244.118l9.683 44.188c.754 3.442 3.803 5.895 7.326 5.895h28.646c2.271 0 4.42-1.029 5.843-2.798 1.424-1.77 1.969-4.089 1.483-6.307zm-18.942 44.283-8.392-38.293c-17.274-78.825-17.922-158.876-1.927-237.932l10.471-51.753h13.246l-10.992 54.328c-15.635 77.276-15.001 155.527 1.884 232.579l9 41.072h-13.29z"/><path d="m500.17 173.77-11.688-57.766c-.707-3.498-3.782-6.013-7.351-6.013h-28.55c-2.25 0-4.381 1.01-5.806 2.751-1.424 1.742-1.991 4.031-1.545 6.236l7.637 37.75c.822 4.061 4.779 6.688 8.839 5.864 4.06-.821 6.686-4.778 5.863-8.838l-5.819-28.763h13.246l10.472 51.753c15.995 79.055 15.346 159.107-1.929 237.932l-8.391 38.293h-13.29l9-41.072c16.197-73.91 17.438-149.02 3.692-223.245-.755-4.074-4.667-6.766-8.741-6.009-4.072.754-6.763 4.667-6.009 8.74 13.381 72.247 12.172 145.358-3.595 217.303l-10.995 50.178c-.486 2.219.06 4.538 1.482 6.307 1.424 1.77 3.572 2.798 5.844 2.798h28.646c3.523 0 6.572-2.453 7.326-5.895l9.683-44.188c17.725-80.873 18.39-163.005 1.979-244.116z"/><path d="m426.332 245.503h-174.476c-4.142 0-7.5 3.358-7.5 7.5v27.982c0 4.142 3.358 7.5 7.5 7.5h174.476c4.143 0 7.5-3.358 7.5-7.5v-27.982c0-4.142-3.357-7.5-7.5-7.5zm-7.5 27.983h-159.475v-12.982h159.476v12.982z"/><path d="m181.617 72.854c1.798 1.81 2.599 3.761 2.729 4.099 1.14 3.91 5.131 5.978 9.075 4.92l27.028-7.247c4.001-1.073 6.375-5.186 5.302-9.187-3.887-14.498-21.198-41.285-58.881-38.847-16.656 1.074-30.876 9.297-41.123 23.781-10.485 14.821-13.189 30.867-13.773 35.473l-40.59 334.961c-.162.993-3.608 20.983-15.01 21.71-7.275.466-10.324-1.698-11.984-3.369-1.086-1.092-2.406-3.46-2.989-4.776-1.485-3.4-5.233-5.202-8.816-4.243l-27.028 7.247c-1.921.515-3.559 1.772-4.553 3.495-.995 1.723-1.264 3.771-.749 5.691 3.721 13.877 19.735 39.002 54.148 39.002 1.926-.085 1.603.123 7.113-.357 36.105-3.849 50.135-40.283 52.515-59.051l40.59-334.956c.157-.967 3.609-20.977 15.01-21.715 7.28-.467 10.326 1.699 11.986 3.369zm-12.952-18.338c-24.44 1.582-28.875 34.402-28.922 34.772l-40.596 335.023c-1.858 14.656-12.447 43.127-39.219 45.981-.757.073-2.649.253-5.386.268-20.162-.001-31.686-11.268-36.927-20.887l13.226-3.546c.836 1.233 1.813 2.492 2.911 3.596 5.754 5.789 13.688 8.401 23.582 7.764 24.445-1.559 28.882-34.402 28.929-34.773l40.597-335.023c1.923-15.166 12.962-44.324 40.975-46.13 22.414-1.438 35.01 10.585 40.558 20.768l-13.138 3.522c-.817-1.156-1.808-2.373-2.999-3.572-5.755-5.788-13.691-8.398-23.591-7.763z"/></g></g></svg>